<svg xmlns="http://www.w3.org/2000/svg" xmlns:xlink="http://www.w3.org/1999/xlink" contentStyleType="text/css" data-diagram-type="CLASS" height="779px" preserveAspectRatio="none" style="width:1516px;height:779px;background:#FFFFFF;" version="1.1" viewBox="0 0 1516 779" width="1516px" zoomAndPan="magnify"><defs/><g><!--class Server--><g class="entity" data-entity="Server" data-source-line="2" data-uid="ent0002" id="entity_Server"><rect fill="#F1F1F1" height="129.4844" rx="2.5" ry="2.5" style="stroke:#181818;stroke-width:0.5;" width="337.2881" x="415.15" y="7"/><ellipse cx="556.589" cy="23" fill="#ADD1B2" rx="11" ry="11" style="stroke:#181818;stroke-width:1;"/><path d="M559.5577,28.6406 Q558.9796,28.9375 558.339,29.0781 Q557.6983,29.2344 556.9952,29.2344 Q554.4952,29.2344 553.1671,27.5938 Q551.8546,25.9375 551.8546,22.8125 Q551.8546,19.6875 553.1671,18.0313 Q554.4952,16.375 556.9952,16.375 Q557.6983,16.375 558.339,16.5313 Q558.9952,16.6875 559.5577,16.9844 L559.5577,19.7031 Q558.9327,19.125 558.339,18.8594 Q557.7452,18.5781 557.1202,18.5781 Q555.7765,18.5781 555.089,19.6563 Q554.4015,20.7188 554.4015,22.8125 Q554.4015,24.9063 555.089,25.9844 Q555.7765,27.0469 557.1202,27.0469 Q557.7452,27.0469 558.339,26.7813 Q558.9327,26.5 559.5577,25.9219 L559.5577,28.6406 Z " fill="#000000"/><text fill="#000000" font-family="sans-serif" font-size="14" lengthAdjust="spacing" textLength="45.9102" x="577.089" y="27.8467">Server</text><line style="stroke:#181818;stroke-width:0.5;" x1="416.15" x2="751.4381" y1="39" y2="39"/><rect fill="none" height="6" style="stroke:#C82930;stroke-width:1;" width="6" x="423.15" y="49.6484"/><text fill="#000000" font-family="sans-serif" font-size="14" lengthAdjust="spacing" textLength="56.1162" x="435.15" y="55.9951">port: int</text><rect fill="none" height="6" style="stroke:#C82930;stroke-width:1;" width="6" x="423.15" y="65.9453"/><text fill="#000000" font-family="sans-serif" font-size="14" lengthAdjust="spacing" textLength="71.4424" x="435.15" y="72.292">app: Flask</text><line style="stroke:#181818;stroke-width:0.5;" x1="416.15" x2="751.4381" y1="79.5938" y2="79.5938"/><ellipse cx="426.15" cy="93.2422" fill="#84BE84" rx="3" ry="3" style="stroke:#038048;stroke-width:1;"/><text fill="#000000" font-family="sans-serif" font-size="14" lengthAdjust="spacing" textLength="82.3252" x="435.15" y="96.5889">start(): void</text><ellipse cx="426.15" cy="109.5391" fill="#84BE84" rx="3" ry="3" style="stroke:#038048;stroke-width:1;"/><text fill="#000000" font-family="sans-serif" font-size="14" lengthAdjust="spacing" textLength="311.2881" x="435.15" y="112.8857">processVideoStream(camera: Camera): void</text><ellipse cx="426.15" cy="125.8359" fill="#84BE84" rx="3" ry="3" style="stroke:#038048;stroke-width:1;"/><text fill="#000000" font-family="sans-serif" font-size="14" lengthAdjust="spacing" textLength="244.5557" x="435.15" y="129.1826">saveSnapshot(image: Image): void</text></g><!--class Camera--><g class="entity" data-entity="Camera" data-source-line="9" data-uid="ent0003" id="entity_Camera"><rect fill="#F1F1F1" height="129.4844" rx="2.5" ry="2.5" style="stroke:#181818;stroke-width:0.5;" width="210.5361" x="76.53" y="213.48"/><ellipse cx="150.0779" cy="229.48" fill="#ADD1B2" rx="11" ry="11" style="stroke:#181818;stroke-width:1;"/><path d="M153.0466,235.1206 Q152.4685,235.4175 151.8279,235.5581 Q151.1872,235.7144 150.4841,235.7144 Q147.9841,235.7144 146.656,234.0738 Q145.3435,232.4175 145.3435,229.2925 Q145.3435,226.1675 146.656,224.5113 Q147.9841,222.855 150.4841,222.855 Q151.1872,222.855 151.8279,223.0113 Q152.4841,223.1675 153.0466,223.4644 L153.0466,226.1831 Q152.4216,225.605 151.8279,225.3394 Q151.2341,225.0581 150.6091,225.0581 Q149.2654,225.0581 148.5779,226.1363 Q147.8904,227.1988 147.8904,229.2925 Q147.8904,231.3863 148.5779,232.4644 Q149.2654,233.5269 150.6091,233.5269 Q151.2341,233.5269 151.8279,233.2613 Q152.4216,232.98 153.0466,232.4019 L153.0466,235.1206 Z " fill="#000000"/><text fill="#000000" font-family="sans-serif" font-size="14" lengthAdjust="spacing" textLength="54.9404" x="170.5779" y="234.3267">Camera</text><line style="stroke:#181818;stroke-width:0.5;" x1="77.53" x2="286.0661" y1="245.48" y2="245.48"/><rect fill="none" height="6" style="stroke:#C82930;stroke-width:1;" width="6" x="84.53" y="256.1284"/><text fill="#000000" font-family="sans-serif" font-size="14" lengthAdjust="spacing" textLength="89.0586" x="96.53" y="262.4751">name: string</text><rect fill="none" height="6" style="stroke:#C82930;stroke-width:1;" width="6" x="84.53" y="272.4253"/><text fill="#000000" font-family="sans-serif" font-size="14" lengthAdjust="spacing" textLength="67.874" x="96.53" y="278.772">url: string</text><rect fill="none" height="6" style="stroke:#C82930;stroke-width:1;" width="6" x="84.53" y="288.7222"/><text fill="#000000" font-family="sans-serif" font-size="14" lengthAdjust="spacing" textLength="119.5947" x="96.53" y="295.0689">username: string</text><line style="stroke:#181818;stroke-width:0.5;" x1="77.53" x2="286.0661" y1="302.3706" y2="302.3706"/><ellipse cx="87.53" cy="316.0191" fill="#84BE84" rx="3" ry="3" style="stroke:#038048;stroke-width:1;"/><text fill="#000000" font-family="sans-serif" font-size="14" lengthAdjust="spacing" textLength="184.5361" x="96.53" y="319.3657">getStream(): VideoStream</text><ellipse cx="87.53" cy="332.3159" fill="#84BE84" rx="3" ry="3" style="stroke:#038048;stroke-width:1;"/><text fill="#000000" font-family="sans-serif" font-size="14" lengthAdjust="spacing" textLength="130.7988" x="96.53" y="335.6626">isActive(): boolean</text></g><!--class VideoStream--><g class="entity" data-entity="VideoStream" data-source-line="16" data-uid="ent0004" id="entity_VideoStream"><rect fill="#F1F1F1" height="96.8906" rx="2.5" ry="2.5" style="stroke:#181818;stroke-width:0.5;" width="157.5645" x="128.01" y="452.56"/><ellipse cx="158.7916" cy="468.56" fill="#ADD1B2" rx="11" ry="11" style="stroke:#181818;stroke-width:1;"/><path d="M161.7604,474.2006 Q161.1823,474.4975 160.5416,474.6381 Q159.901,474.7944 159.1979,474.7944 Q156.6979,474.7944 155.3698,473.1538 Q154.0573,471.4975 154.0573,468.3725 Q154.0573,465.2475 155.3698,463.5913 Q156.6979,461.935 159.1979,461.935 Q159.901,461.935 160.5416,462.0913 Q161.1979,462.2475 161.7604,462.5444 L161.7604,465.2631 Q161.1354,464.685 160.5416,464.4194 Q159.9479,464.1381 159.3229,464.1381 Q157.9791,464.1381 157.2916,465.2163 Q156.6041,466.2788 156.6041,468.3725 Q156.6041,470.4663 157.2916,471.5444 Q157.9791,472.6069 159.3229,472.6069 Q159.9479,472.6069 160.5416,472.3413 Q161.1354,472.06 161.7604,471.4819 L161.7604,474.2006 Z " fill="#000000"/><text fill="#000000" font-family="sans-serif" font-size="14" lengthAdjust="spacing" textLength="90.4941" x="176.2987" y="473.4067">VideoStream</text><line style="stroke:#181818;stroke-width:0.5;" x1="129.01" x2="284.5745" y1="484.56" y2="484.56"/><rect fill="none" height="6" style="stroke:#C82930;stroke-width:1;" width="6" x="136.01" y="495.2084"/><text fill="#000000" font-family="sans-serif" font-size="14" lengthAdjust="spacing" textLength="78.5381" x="148.01" y="501.5551">frames: list</text><line style="stroke:#181818;stroke-width:0.5;" x1="129.01" x2="284.5745" y1="508.8569" y2="508.8569"/><ellipse cx="139.01" cy="522.5053" fill="#84BE84" rx="3" ry="3" style="stroke:#038048;stroke-width:1;"/><text fill="#000000" font-family="sans-serif" font-size="14" lengthAdjust="spacing" textLength="131.5645" x="148.01" y="525.852">getFrame(): Image</text><ellipse cx="139.01" cy="538.8022" fill="#84BE84" rx="3" ry="3" style="stroke:#038048;stroke-width:1;"/><text fill="#000000" font-family="sans-serif" font-size="14" lengthAdjust="spacing" textLength="85.7773" x="148.01" y="542.1489">close(): void</text></g><!--class ObjectDetector--><g class="entity" data-entity="ObjectDetector" data-source-line="21" data-uid="ent0005" id="entity_ObjectDetector"><rect fill="#F1F1F1" height="80.5938" rx="2.5" ry="2.5" style="stroke:#181818;stroke-width:0.5;" width="317.4707" x="1192.06" y="237.93"/><ellipse cx="1293.2455" cy="253.93" fill="#ADD1B2" rx="11" ry="11" style="stroke:#181818;stroke-width:1;"/><path d="M1296.2143,259.5706 Q1295.6362,259.8675 1294.9955,260.0081 Q1294.3549,260.1644 1293.6518,260.1644 Q1291.1518,260.1644 1289.8237,258.5238 Q1288.5112,256.8675 1288.5112,253.7425 Q1288.5112,250.6175 1289.8237,248.9613 Q1291.1518,247.305 1293.6518,247.305 Q1294.3549,247.305 1294.9955,247.4613 Q1295.6518,247.6175 1296.2143,247.9144 L1296.2143,250.6331 Q1295.5893,250.055 1294.9955,249.7894 Q1294.4018,249.5081 1293.7768,249.5081 Q1292.433,249.5081 1291.7455,250.5863 Q1291.058,251.6488 1291.058,253.7425 Q1291.058,255.8363 1291.7455,256.9144 Q1292.433,257.9769 1293.7768,257.9769 Q1294.4018,257.9769 1294.9955,257.7113 Q1295.5893,257.43 1296.2143,256.8519 L1296.2143,259.5706 Z " fill="#000000"/><text fill="#000000" font-family="sans-serif" font-size="14" lengthAdjust="spacing" textLength="106.5996" x="1313.7455" y="258.7767">ObjectDetector</text><line style="stroke:#181818;stroke-width:0.5;" x1="1193.06" x2="1508.5307" y1="269.93" y2="269.93"/><rect fill="none" height="6" style="stroke:#C82930;stroke-width:1;" width="6" x="1200.06" y="280.5784"/><text fill="#000000" font-family="sans-serif" font-size="14" lengthAdjust="spacing" textLength="108.3428" x="1212.06" y="286.9251">model: YOLOv8</text><line style="stroke:#181818;stroke-width:0.5;" x1="1193.06" x2="1508.5307" y1="294.2269" y2="294.2269"/><ellipse cx="1203.06" cy="307.8753" fill="#84BE84" rx="3" ry="3" style="stroke:#038048;stroke-width:1;"/><text fill="#000000" font-family="sans-serif" font-size="14" lengthAdjust="spacing" textLength="291.4707" x="1212.06" y="311.222">detectObjects(image: Image): list[Object]</text></g><!--class Image--><g class="entity" data-entity="Image" data-source-line="25" data-uid="ent0006" id="entity_Image"><rect fill="#F1F1F1" height="113.1875" rx="2.5" ry="2.5" style="stroke:#181818;stroke-width:0.5;" width="173.8818" x="222.85" y="659.04"/><ellipse cx="283.6181" cy="675.04" fill="#ADD1B2" rx="11" ry="11" style="stroke:#181818;stroke-width:1;"/><path d="M286.5868,680.6806 Q286.0087,680.9775 285.3681,681.1181 Q284.7274,681.2744 284.0243,681.2744 Q281.5243,681.2744 280.1962,679.6338 Q278.8837,677.9775 278.8837,674.8525 Q278.8837,671.7275 280.1962,670.0713 Q281.5243,668.415 284.0243,668.415 Q284.7274,668.415 285.3681,668.5713 Q286.0243,668.7275 286.5868,669.0244 L286.5868,671.7431 Q285.9618,671.165 285.3681,670.8994 Q284.7743,670.6181 284.1493,670.6181 Q282.8056,670.6181 282.1181,671.6963 Q281.4306,672.7588 281.4306,674.8525 Q281.4306,676.9463 282.1181,678.0244 Q282.8056,679.0869 284.1493,679.0869 Q284.7743,679.0869 285.3681,678.8213 Q285.9618,678.54 286.5868,677.9619 L286.5868,680.6806 Z " fill="#000000"/><text fill="#000000" font-family="sans-serif" font-size="14" lengthAdjust="spacing" textLength="43.8457" x="304.1181" y="679.8867">Image</text><line style="stroke:#181818;stroke-width:0.5;" x1="223.85" x2="395.7318" y1="691.04" y2="691.04"/><rect fill="none" height="6" style="stroke:#C82930;stroke-width:1;" width="6" x="230.85" y="701.6884"/><text fill="#000000" font-family="sans-serif" font-size="14" lengthAdjust="spacing" textLength="81.1836" x="242.85" y="708.0351">path: string</text><rect fill="none" height="6" style="stroke:#C82930;stroke-width:1;" width="6" x="230.85" y="717.9853"/><text fill="#000000" font-family="sans-serif" font-size="14" lengthAdjust="spacing" textLength="147.8818" x="242.85" y="724.332">timestamp: datetime</text><line style="stroke:#181818;stroke-width:0.5;" x1="223.85" x2="395.7318" y1="731.6338" y2="731.6338"/><ellipse cx="233.85" cy="745.2822" fill="#84BE84" rx="3" ry="3" style="stroke:#038048;stroke-width:1;"/><text fill="#000000" font-family="sans-serif" font-size="14" lengthAdjust="spacing" textLength="82.4893" x="242.85" y="748.6289">save(): void</text><ellipse cx="233.85" cy="761.5791" fill="#84BE84" rx="3" ry="3" style="stroke:#038048;stroke-width:1;"/><text fill="#000000" font-family="sans-serif" font-size="14" lengthAdjust="spacing" textLength="93.8232" x="242.85" y="764.9257">delete(): void</text></g><!--class Object--><g class="entity" data-entity="Object" data-source-line="31" data-uid="ent0007" id="entity_Object"><rect fill="#F1F1F1" height="96.8906" rx="2.5" ry="2.5" style="stroke:#181818;stroke-width:0.5;" width="163.1084" x="1269.24" y="452.56"/><ellipse cx="1323.7463" cy="468.56" fill="#ADD1B2" rx="11" ry="11" style="stroke:#181818;stroke-width:1;"/><path d="M1326.7151,474.2006 Q1326.137,474.4975 1325.4963,474.6381 Q1324.8557,474.7944 1324.1526,474.7944 Q1321.6526,474.7944 1320.3245,473.1538 Q1319.012,471.4975 1319.012,468.3725 Q1319.012,465.2475 1320.3245,463.5913 Q1321.6526,461.935 1324.1526,461.935 Q1324.8557,461.935 1325.4963,462.0913 Q1326.1526,462.2475 1326.7151,462.5444 L1326.7151,465.2631 Q1326.0901,464.685 1325.4963,464.4194 Q1324.9026,464.1381 1324.2776,464.1381 Q1322.9338,464.1381 1322.2463,465.2163 Q1321.5588,466.2788 1321.5588,468.3725 Q1321.5588,470.4663 1322.2463,471.5444 Q1322.9338,472.6069 1324.2776,472.6069 Q1324.9026,472.6069 1325.4963,472.3413 Q1326.0901,472.06 1326.7151,471.4819 L1326.7151,474.2006 Z " fill="#000000"/><text fill="#000000" font-family="sans-serif" font-size="14" lengthAdjust="spacing" textLength="45.5957" x="1344.2463" y="473.4067">Object</text><line style="stroke:#181818;stroke-width:0.5;" x1="1270.24" x2="1431.3484" y1="484.56" y2="484.56"/><rect fill="none" height="6" style="stroke:#C82930;stroke-width:1;" width="6" x="1277.24" y="495.2084"/><text fill="#000000" font-family="sans-serif" font-size="14" lengthAdjust="spacing" textLength="75.1885" x="1289.24" y="501.5551">classId: int</text><rect fill="none" height="6" style="stroke:#C82930;stroke-width:1;" width="6" x="1277.24" y="511.5053"/><text fill="#000000" font-family="sans-serif" font-size="14" lengthAdjust="spacing" textLength="117.2568" x="1289.24" y="517.852">confidence: float</text><rect fill="none" height="6" style="stroke:#C82930;stroke-width:1;" width="6" x="1277.24" y="527.8022"/><text fill="#000000" font-family="sans-serif" font-size="14" lengthAdjust="spacing" textLength="137.1084" x="1289.24" y="534.1489">boundingBox: tuple</text><line style="stroke:#181818;stroke-width:0.5;" x1="1270.24" x2="1431.3484" y1="541.4506" y2="541.4506"/></g><!--class Client--><g class="entity" data-entity="Client" data-source-line="36" data-uid="ent0008" id="entity_Client"><rect fill="#F1F1F1" height="113.1875" rx="2.5" ry="2.5" style="stroke:#181818;stroke-width:0.5;" width="325.4209" x="322.08" y="221.63"/><ellipse cx="460.2753" cy="237.63" fill="#ADD1B2" rx="11" ry="11" style="stroke:#181818;stroke-width:1;"/><path d="M463.2441,243.2706 Q462.6659,243.5675 462.0253,243.7081 Q461.3847,243.8644 460.6816,243.8644 Q458.1816,243.8644 456.8534,242.2238 Q455.5409,240.5675 455.5409,237.4425 Q455.5409,234.3175 456.8534,232.6613 Q458.1816,231.005 460.6816,231.005 Q461.3847,231.005 462.0253,231.1613 Q462.6816,231.3175 463.2441,231.6144 L463.2441,234.3331 Q462.6191,233.755 462.0253,233.4894 Q461.4316,233.2081 460.8066,233.2081 Q459.4628,233.2081 458.7753,234.2863 Q458.0878,235.3488 458.0878,237.4425 Q458.0878,239.5363 458.7753,240.6144 Q459.4628,241.6769 460.8066,241.6769 Q461.4316,241.6769 462.0253,241.4113 Q462.6191,241.13 463.2441,240.5519 L463.2441,243.2706 Z " fill="#000000"/><text fill="#000000" font-family="sans-serif" font-size="14" lengthAdjust="spacing" textLength="40.5303" x="480.7753" y="242.4767">Client</text><line style="stroke:#181818;stroke-width:0.5;" x1="323.08" x2="646.5009" y1="253.63" y2="253.63"/><rect fill="none" height="6" style="stroke:#C82930;stroke-width:1;" width="6" x="330.08" y="264.2784"/><text fill="#000000" font-family="sans-serif" font-size="14" lengthAdjust="spacing" textLength="133.7314" x="342.08" y="270.6251">gui: CustomTkinter</text><line style="stroke:#181818;stroke-width:0.5;" x1="323.08" x2="646.5009" y1="277.9269" y2="277.9269"/><ellipse cx="333.08" cy="291.5753" fill="#84BE84" rx="3" ry="3" style="stroke:#038048;stroke-width:1;"/><text fill="#000000" font-family="sans-serif" font-size="14" lengthAdjust="spacing" textLength="105.9365" x="342.08" y="294.922">startGui(): void</text><ellipse cx="333.08" cy="307.8722" fill="#84BE84" rx="3" ry="3" style="stroke:#038048;stroke-width:1;"/><text fill="#000000" font-family="sans-serif" font-size="14" lengthAdjust="spacing" textLength="299.4209" x="342.08" y="311.2189">displayStream(stream: VideoStream): void</text><ellipse cx="333.08" cy="324.1691" fill="#84BE84" rx="3" ry="3" style="stroke:#038048;stroke-width:1;"/><text fill="#000000" font-family="sans-serif" font-size="14" lengthAdjust="spacing" textLength="294.041" x="342.08" y="327.5157">showSnapshots(images: list[Image]): void</text></g><!--class User--><g class="entity" data-entity="User" data-source-line="42" data-uid="ent0009" id="entity_User"><rect fill="#F1F1F1" height="162.0781" rx="2.5" ry="2.5" style="stroke:#181818;stroke-width:0.5;" width="273.4268" x="654.08" y="419.96"/><ellipse cx="770.5883" cy="435.96" fill="#ADD1B2" rx="11" ry="11" style="stroke:#181818;stroke-width:1;"/><path d="M773.5571,441.6006 Q772.9789,441.8975 772.3383,442.0381 Q771.6977,442.1944 770.9946,442.1944 Q768.4946,442.1944 767.1664,440.5538 Q765.8539,438.8975 765.8539,435.7725 Q765.8539,432.6475 767.1664,430.9913 Q768.4946,429.335 770.9946,429.335 Q771.6977,429.335 772.3383,429.4913 Q772.9946,429.6475 773.5571,429.9444 L773.5571,432.6631 Q772.9321,432.085 772.3383,431.8194 Q771.7446,431.5381 771.1196,431.5381 Q769.7758,431.5381 769.0883,432.6163 Q768.4008,433.6788 768.4008,435.7725 Q768.4008,437.8663 769.0883,438.9444 Q769.7758,440.0069 771.1196,440.0069 Q771.7446,440.0069 772.3383,439.7413 Q772.9321,439.46 773.5571,438.8819 L773.5571,441.6006 Z " fill="#000000"/><text fill="#000000" font-family="sans-serif" font-size="14" lengthAdjust="spacing" textLength="31.9102" x="791.0883" y="440.8067">User</text><line style="stroke:#181818;stroke-width:0.5;" x1="655.08" x2="926.5068" y1="451.96" y2="451.96"/><rect fill="none" height="6" style="stroke:#C82930;stroke-width:1;" width="6" x="662.08" y="462.6084"/><text fill="#000000" font-family="sans-serif" font-size="14" lengthAdjust="spacing" textLength="119.5947" x="674.08" y="468.9551">username: string</text><rect fill="none" height="6" style="stroke:#C82930;stroke-width:1;" width="6" x="662.08" y="478.9053"/><text fill="#000000" font-family="sans-serif" font-size="14" lengthAdjust="spacing" textLength="116.0674" x="674.08" y="485.252">password: string</text><rect fill="none" height="6" style="stroke:#C82930;stroke-width:1;" width="6" x="662.08" y="495.2022"/><text fill="#000000" font-family="sans-serif" font-size="14" lengthAdjust="spacing" textLength="76.1797" x="674.08" y="501.5489">role: string</text><rect fill="none" height="6" style="stroke:#C82930;stroke-width:1;" width="6" x="662.08" y="511.4991"/><text fill="#000000" font-family="sans-serif" font-size="14" lengthAdjust="spacing" textLength="158.6689" x="674.08" y="517.8457">detectionSettings: dict</text><line style="stroke:#181818;stroke-width:0.5;" x1="655.08" x2="926.5068" y1="525.1475" y2="525.1475"/><ellipse cx="665.08" cy="538.7959" fill="#84BE84" rx="3" ry="3" style="stroke:#038048;stroke-width:1;"/><text fill="#000000" font-family="sans-serif" font-size="14" lengthAdjust="spacing" textLength="110.168" x="674.08" y="542.1426">login(): boolean</text><ellipse cx="665.08" cy="555.0928" fill="#84BE84" rx="3" ry="3" style="stroke:#038048;stroke-width:1;"/><text fill="#000000" font-family="sans-serif" font-size="14" lengthAdjust="spacing" textLength="130.3613" x="674.08" y="558.4395">register(): boolean</text><ellipse cx="665.08" cy="571.3897" fill="#84BE84" rx="3" ry="3" style="stroke:#038048;stroke-width:1;"/><text fill="#000000" font-family="sans-serif" font-size="14" lengthAdjust="spacing" textLength="247.4268" x="674.08" y="574.7364">updateSettings(settings: dict): void</text></g><!--class TelegramBot--><g class="entity" data-entity="TelegramBot" data-source-line="51" data-uid="ent0010" id="entity_TelegramBot"><rect fill="#F1F1F1" height="113.1875" rx="2.5" ry="2.5" style="stroke:#181818;stroke-width:0.5;" width="366.8467" x="790.37" y="221.63"/><ellipse cx="924.4501" cy="237.63" fill="#ADD1B2" rx="11" ry="11" style="stroke:#181818;stroke-width:1;"/><path d="M927.4188,243.2706 Q926.8407,243.5675 926.2001,243.7081 Q925.5595,243.8644 924.8563,243.8644 Q922.3563,243.8644 921.0282,242.2238 Q919.7157,240.5675 919.7157,237.4425 Q919.7157,234.3175 921.0282,232.6613 Q922.3563,231.005 924.8563,231.005 Q925.5595,231.005 926.2001,231.1613 Q926.8563,231.3175 927.4188,231.6144 L927.4188,234.3331 Q926.7938,233.755 926.2001,233.4894 Q925.6063,233.2081 924.9813,233.2081 Q923.6376,233.2081 922.9501,234.2863 Q922.2626,235.3488 922.2626,237.4425 Q922.2626,239.5363 922.9501,240.6144 Q923.6376,241.6769 924.9813,241.6769 Q925.6063,241.6769 926.2001,241.4113 Q926.7938,241.13 927.4188,240.5519 L927.4188,243.2706 Z " fill="#000000"/><text fill="#000000" font-family="sans-serif" font-size="14" lengthAdjust="spacing" textLength="90.1865" x="944.9501" y="242.4767">TelegramBot</text><line style="stroke:#181818;stroke-width:0.5;" x1="791.37" x2="1156.2167" y1="253.63" y2="253.63"/><rect fill="none" height="6" style="stroke:#C82930;stroke-width:1;" width="6" x="798.37" y="264.2784"/><text fill="#000000" font-family="sans-serif" font-size="14" lengthAdjust="spacing" textLength="89.0039" x="810.37" y="270.6251">token: string</text><rect fill="none" height="6" style="stroke:#C82930;stroke-width:1;" width="6" x="798.37" y="280.5753"/><text fill="#000000" font-family="sans-serif" font-size="14" lengthAdjust="spacing" textLength="80.6777" x="810.37" y="286.922">chatIds: list</text><line style="stroke:#181818;stroke-width:0.5;" x1="791.37" x2="1156.2167" y1="294.2238" y2="294.2238"/><ellipse cx="801.37" cy="307.8722" fill="#84BE84" rx="3" ry="3" style="stroke:#038048;stroke-width:1;"/><text fill="#000000" font-family="sans-serif" font-size="14" lengthAdjust="spacing" textLength="82.3252" x="810.37" y="311.2189">start(): void</text><ellipse cx="801.37" cy="324.1691" fill="#84BE84" rx="3" ry="3" style="stroke:#038048;stroke-width:1;"/><text fill="#000000" font-family="sans-serif" font-size="14" lengthAdjust="spacing" textLength="340.8467" x="810.37" y="327.5157">sendNotification(image: Image, user: User): void</text></g><!--class Config--><g class="entity" data-entity="Config" data-source-line="57" data-uid="ent0011" id="entity_Config"><rect fill="#F1F1F1" height="129.4844" rx="2.5" ry="2.5" style="stroke:#181818;stroke-width:0.5;" width="186.46" x="432.56" y="436.26"/><ellipse cx="499.0805" cy="452.26" fill="#ADD1B2" rx="11" ry="11" style="stroke:#181818;stroke-width:1;"/><path d="M502.0493,457.9006 Q501.4711,458.1975 500.8305,458.3381 Q500.1899,458.4944 499.4868,458.4944 Q496.9868,458.4944 495.6586,456.8538 Q494.3461,455.1975 494.3461,452.0725 Q494.3461,448.9475 495.6586,447.2913 Q496.9868,445.635 499.4868,445.635 Q500.1899,445.635 500.8305,445.7913 Q501.4868,445.9475 502.0493,446.2444 L502.0493,448.9631 Q501.4243,448.385 500.8305,448.1194 Q500.2368,447.8381 499.6118,447.8381 Q498.268,447.8381 497.5805,448.9163 Q496.893,449.9788 496.893,452.0725 Q496.893,454.1663 497.5805,455.2444 Q498.268,456.3069 499.6118,456.3069 Q500.2368,456.3069 500.8305,456.0413 Q501.4243,455.76 502.0493,455.1819 L502.0493,457.9006 Z " fill="#000000"/><text fill="#000000" font-family="sans-serif" font-size="14" lengthAdjust="spacing" textLength="44.9189" x="519.5805" y="457.1067">Config</text><line style="stroke:#181818;stroke-width:0.5;" x1="433.56" x2="618.02" y1="468.26" y2="468.26"/><rect fill="none" height="6" style="stroke:#C82930;stroke-width:1;" width="6" x="440.56" y="478.9084"/><text fill="#000000" font-family="sans-serif" font-size="14" lengthAdjust="spacing" textLength="99.9893" x="452.56" y="485.2551">serverPort: int</text><rect fill="none" height="6" style="stroke:#C82930;stroke-width:1;" width="6" x="440.56" y="495.2053"/><text fill="#000000" font-family="sans-serif" font-size="14" lengthAdjust="spacing" textLength="138.0996" x="452.56" y="501.552">botServerUrl: string</text><rect fill="none" height="6" style="stroke:#C82930;stroke-width:1;" width="6" x="440.56" y="511.5022"/><text fill="#000000" font-family="sans-serif" font-size="14" lengthAdjust="spacing" textLength="160.46" x="452.56" y="517.8489">allowedExtensions: set</text><line style="stroke:#181818;stroke-width:0.5;" x1="433.56" x2="618.02" y1="525.1506" y2="525.1506"/><ellipse cx="443.56" cy="538.7991" fill="#84BE84" rx="3" ry="3" style="stroke:#038048;stroke-width:1;"/><text fill="#000000" font-family="sans-serif" font-size="14" lengthAdjust="spacing" textLength="124.5576" x="452.56" y="542.1457">loadConfig(): void</text><ellipse cx="443.56" cy="555.0959" fill="#84BE84" rx="3" ry="3" style="stroke:#038048;stroke-width:1;"/><text fill="#000000" font-family="sans-serif" font-size="14" lengthAdjust="spacing" textLength="127.4082" x="452.56" y="558.4426">saveConfig(): void</text></g><!--link Server to Camera--><g class="link" data-entity-1="Server" data-entity-2="Camera" data-source-line="64" data-uid="lnk12" id="link_Server_Camera"><path codeLine="64" d="M455.86,136.91 C408.36,160.83 354.06,188.29 304.79,213.48 C299.12,216.38 298.639,216.6323 292.769,219.6423" fill="none" id="Server-to-Camera" style="stroke:#181818;stroke-width:1;"/><polygon fill="#181818" points="287.43,222.38,297.2636,221.8328,291.8792,220.0986,293.6134,214.7141,287.43,222.38" style="stroke:#181818;stroke-width:1;"/><text fill="#000000" font-family="sans-serif" font-size="13" lengthAdjust="spacing" textLength="59.8584" x="397.79" y="179.5469">manages</text><text fill="#000000" font-family="sans-serif" font-size="13" lengthAdjust="spacing" textLength="36.5625" x="282.3844" y="210.6609">many</text></g><!--link Server to ObjectDetector--><g class="link" data-entity-1="Server" data-entity-2="ObjectDetector" data-source-line="65" data-uid="lnk13" id="link_Server_ObjectDetector"><path codeLine="65" d="M752.64,107.59 C871.59,133.45 1034.08,171.39 1174.79,213.48 C1198.46,220.56 1217.9301,227.0305 1241.5701,235.4805" fill="none" id="Server-to-ObjectDetector" style="stroke:#181818;stroke-width:1;"/><polygon fill="#181818" points="1247.22,237.5,1240.0915,230.7041,1242.5117,235.8171,1237.3988,238.2373,1247.22,237.5" style="stroke:#181818;stroke-width:1;"/><text fill="#000000" font-family="sans-serif" font-size="13" lengthAdjust="spacing" textLength="29.7832" x="1064.79" y="179.5469">uses</text></g><!--link ObjectDetector to Object--><g class="link" data-entity-1="ObjectDetector" data-entity-2="Object" data-source-line="66" data-uid="lnk14" id="link_ObjectDetector_Object"><path codeLine="66" d="M1350.79,318.95 C1350.79,356.32 1350.79,406.32 1350.79,446.14" fill="none" id="ObjectDetector-to-Object" style="stroke:#181818;stroke-width:1;"/><polygon fill="#181818" points="1350.79,452.14,1354.79,443.14,1350.79,447.14,1346.79,443.14,1350.79,452.14" style="stroke:#181818;stroke-width:1;"/><text fill="#000000" font-family="sans-serif" font-size="13" lengthAdjust="spacing" textLength="48.3628" x="1351.79" y="386.0269">detects</text><text fill="#000000" font-family="sans-serif" font-size="13" lengthAdjust="spacing" textLength="36.5625" x="1312.4085" y="441.6417">many</text></g><!--link Camera to VideoStream--><g class="link" data-entity-1="Camera" data-entity-2="VideoStream" data-source-line="67" data-uid="lnk15" id="link_Camera_VideoStream"><path codeLine="67" d="M179.47,343.26 C179.19,353.2 178.95,363.36 178.79,372.96 C178.67,380.52 177.86,382.47 178.79,389.96 C181.39,410.7 185.0516,427.3441 190.3116,446.5041" fill="none" id="Camera-to-VideoStream" style="stroke:#181818;stroke-width:1;"/><polygon fill="#181818" points="191.9,452.29,193.3747,442.5522,190.5763,447.4684,185.6601,444.6701,191.9,452.29" style="stroke:#181818;stroke-width:1;"/><text fill="#000000" font-family="sans-serif" font-size="13" lengthAdjust="spacing" textLength="55.8784" x="179.79" y="386.0269">provides</text></g><!--link VideoStream to Image--><g class="link" data-entity-1="VideoStream" data-entity-2="Image" data-source-line="68" data-uid="lnk16" id="link_VideoStream_Image"><path codeLine="68" d="M226.7,549.81 C236.99,573.82 250.04,603.22 262.79,629.04 C267.6,638.77 270.0928,643.6986 275.4028,653.5486" fill="none" id="VideoStream-to-Image" style="stroke:#181818;stroke-width:1;"/><polygon fill="#181818" points="278.25,658.83,277.5002,649.0097,275.8774,654.4288,270.4583,652.8059,278.25,658.83" style="stroke:#181818;stroke-width:1;"/><text fill="#000000" font-family="sans-serif" font-size="13" lengthAdjust="spacing" textLength="65.6665" x="263.79" y="625.1069">generates</text><text fill="#000000" font-family="sans-serif" font-size="13" lengthAdjust="spacing" textLength="36.5625" x="236.2465" y="648.068">many</text></g><!--link Server to Image--><g class="link" data-entity-1="Server" data-entity-2="Image" data-source-line="69" data-uid="lnk17" id="link_Server_Image"><path codeLine="69" d="M414.86,95.54 C278.48,117.82 102.34,156.72 58.79,213.48 C6,282.29 92.6,555.37 110.79,582.04 C138.34,622.43 177.3993,650.8064 217.2193,672.8264" fill="none" id="Server-to-Image" style="stroke:#181818;stroke-width:1;"/><polygon fill="#181818" points="222.47,675.73,216.5297,667.8742,218.0945,673.3104,212.6583,674.8751,222.47,675.73" style="stroke:#181818;stroke-width:1;"/><text fill="#000000" font-family="sans-serif" font-size="13" lengthAdjust="spacing" textLength="37.2036" x="54.79" y="386.0269">saves</text><text fill="#000000" font-family="sans-serif" font-size="13" lengthAdjust="spacing" textLength="36.5625" x="178.4279" y="669.1726">many</text></g><!--link Client to VideoStream--><g class="link" data-entity-1="Client" data-entity-2="VideoStream" data-source-line="70" data-uid="lnk18" id="link_Client_VideoStream"><path codeLine="70" d="M328.65,335.25 C309.61,345.99 291.4,358.5 275.79,372.96 C252.42,394.63 237.6384,420.5658 226.2784,446.7458" fill="none" id="Client-to-VideoStream" style="stroke:#181818;stroke-width:1;"/><polygon fill="#181818" points="223.89,452.25,231.142,445.586,225.8803,447.6632,223.8031,442.4015,223.89,452.25" style="stroke:#181818;stroke-width:1;"/><text fill="#000000" font-family="sans-serif" font-size="13" lengthAdjust="spacing" textLength="52.9331" x="276.79" y="386.0269">displays</text><text fill="#000000" font-family="sans-serif" font-size="13" lengthAdjust="spacing" textLength="36.5625" x="187.8027" y="441.4153">many</text></g><!--link Client to Image--><g class="link" data-entity-1="Client" data-entity-2="Image" data-source-line="71" data-uid="lnk19" id="link_Client_Image"><path codeLine="71" d="M429.82,335.19 C408.92,359.44 386.8,389.29 372.79,419.96 C333.54,505.95 355.24,536.98 333.79,629.04 C331.55,638.66 330.5027,643.0298 327.8327,652.8598" fill="none" id="Client-to-Image" style="stroke:#181818;stroke-width:1;"/><polygon fill="#181818" points="326.26,658.65,332.4792,651.0132,327.5706,653.8248,324.7589,648.9162,326.26,658.65" style="stroke:#181818;stroke-width:1;"/><text fill="#000000" font-family="sans-serif" font-size="13" lengthAdjust="spacing" textLength="40.3711" x="373.79" y="505.5669">shows</text><text fill="#000000" font-family="sans-serif" font-size="13" lengthAdjust="spacing" textLength="36.5625" x="290.1077" y="647.866">many</text></g><!--link Client to User--><g class="link" data-entity-1="Client" data-entity-2="User" data-source-line="72" data-uid="lnk20" id="link_Client_User"><path codeLine="72" d="M562.41,335.22 C597.82,360.77 635.5545,387.989 674.3145,415.959" fill="none" id="Client-to-User" style="stroke:#181818;stroke-width:1;"/><polygon fill="#181818" points="679.18,419.47,674.2225,410.9598,675.1254,416.5442,669.5411,417.4471,679.18,419.47" style="stroke:#181818;stroke-width:1;"/><text fill="#000000" font-family="sans-serif" font-size="13" lengthAdjust="spacing" textLength="89.4702" x="638.79" y="386.0269">authenticates</text></g><!--link TelegramBot to User--><g class="link" data-entity-1="TelegramBot" data-entity-2="User" data-source-line="73" data-uid="lnk21" id="link_TelegramBot_User"><path codeLine="73" d="M927.38,335.22 C906.2,360.77 884.5586,386.8803 861.3786,414.8503" fill="none" id="TelegramBot-to-User" style="stroke:#181818;stroke-width:1;"/><polygon fill="#181818" points="857.55,419.47,866.3727,415.0928,860.7405,415.6202,860.2131,409.988,857.55,419.47" style="stroke:#181818;stroke-width:1;"/><text fill="#000000" font-family="sans-serif" font-size="13" lengthAdjust="spacing" textLength="47.8613" x="894.79" y="386.0269">notifies</text><text fill="#000000" font-family="sans-serif" font-size="13" lengthAdjust="spacing" textLength="36.5625" x="825.7642" y="408.8917">many</text></g><!--link TelegramBot to Image--><g class="link" data-entity-1="TelegramBot" data-entity-2="Image" data-source-line="74" data-uid="lnk22" id="link_TelegramBot_Image"><path codeLine="74" d="M986.3,335.25 C997.76,402.58 1004.95,514.86 944.79,582.04 C872.91,662.33 559.6218,696.2133 403.0018,708.4333" fill="none" id="TelegramBot-to-Image" style="stroke:#181818;stroke-width:1;"/><polygon fill="#181818" points="397.02,708.9,406.3039,712.1878,402.0049,708.5111,405.6816,704.212,397.02,708.9" style="stroke:#181818;stroke-width:1;"/><text fill="#000000" font-family="sans-serif" font-size="13" lengthAdjust="spacing" textLength="38.0352" x="995.79" y="505.5669">sends</text><text fill="#000000" font-family="sans-serif" font-size="13" lengthAdjust="spacing" textLength="36.5625" x="404.7684" y="704.9265">many</text></g><!--link Server to Config--><g class="link" data-entity-1="Server" data-entity-2="Config" data-source-line="75" data-uid="lnk23" id="link_Server_Config"><path codeLine="75" d="M637.79,136.71 C687.1,203.37 745.34,309.19 695.79,389.96 C680.41,415.04 661.91,404.65 636.79,419.96 C628.68,424.91 625.372,426.9264 617.162,432.4364" fill="none" id="Server-to-Config" style="stroke:#181818;stroke-width:1;"/><polygon fill="#181818" points="612.18,435.78,621.8821,434.086,616.3317,432.9937,617.424,427.4433,612.18,435.78" style="stroke:#181818;stroke-width:1;"/><text fill="#000000" font-family="sans-serif" font-size="13" lengthAdjust="spacing" textLength="36.334" x="715.79" y="282.7869">reads</text></g><!--link TelegramBot to Config--><g class="link" data-entity-1="TelegramBot" data-entity-2="Config" data-source-line="76" data-uid="lnk24" id="link_TelegramBot_Config"><path codeLine="76" d="M867.56,335.17 C829.2,354.09 785.15,374.35 743.79,389.96 C697.59,407.41 681.29,398.52 636.79,419.96 C627.27,424.55 622.7886,426.791 613.4886,432.601" fill="none" id="TelegramBot-to-Config" style="stroke:#181818;stroke-width:1;"/><polygon fill="#181818" points="608.4,435.78,618.1522,434.4039,612.6405,433.1308,613.9136,427.6191,608.4,435.78" style="stroke:#181818;stroke-width:1;"/><text fill="#000000" font-family="sans-serif" font-size="13" lengthAdjust="spacing" textLength="36.334" x="783.79" y="386.0269">reads</text></g><!--link Client to Config--><g class="link" data-entity-1="Client" data-entity-2="Config" data-source-line="77" data-uid="lnk25" id="link_Client_Config"><path codeLine="77" d="M495.19,335.22 C500.89,365.88 506.8757,398.1006 512.7857,429.9606" fill="none" id="Client-to-Config" style="stroke:#181818;stroke-width:1;"/><polygon fill="#181818" points="513.88,435.86,516.1714,426.2814,512.9681,430.9439,508.3056,427.7405,513.88,435.86" style="stroke:#181818;stroke-width:1;"/><text fill="#000000" font-family="sans-serif" font-size="13" lengthAdjust="spacing" textLength="36.334" x="506.79" y="386.0269">reads</text></g><!--SRC=[TLN1Rjim3BtdAuHUbg7hVT1XmDgkGu1X6P1sm53qe5YCeyMM395EMmpzzr6IxKfEcqC4aHJvI3xI7yGrx8mrjXPLen01XR9Qq1wC5nuQHSPPt9iEnSvviRw-4lYC1EqYceiD-2DuyMyX-7VHEKzI64lfghfEYXksEyJxEPBojFmenT4PdKITTnKW_ZOQt8Oyg7PPgHQyak8gdeKrgYDihEfmxsXfMbM35AjmZ5Ol0wpqTeHb-IO5akSqawJtpKo0u4_CpckW0HG7o30chS6l5PaZ1ENMkGQKdG1anYEAdMV_A4LZa2RtDq4O7CGqahXg7C9odj9w-nSgkWRYVpTLl7KQE9K_wn_hu-VqN4UJP8xpAeNWzqdtCBcEogc7YlPbRSWmRb8jDrChWd1zRKVPJWR3qT_1FaQ8ifNEY58vk-E2sOgHxXgd1l7MzLOpZ4lt90NrNGEl3MuCsCbZtHlcIu_asji3UmMV4UvxRsOW3NQDUXuwY_4esbjoRkyUHyuDvHoQU1_hzZ1FzWvV1-9DMd694H-TrwNKCuDAIUea3-06Y5ZASRMf1l8qhZOsfrwKUgWP6VWJHT-5tesEbbXudATmossicPcNRYenkGFO4bwrLxJI1QFVc704gtywCZjJnMLICFAJ21MIiMOdCnn8KO_nCIwQN-M2sJfA2-XkFi-gQTmZw6zF11R32cCrJ9LJEZbVdcoNcVnbCIouYuilugnLzlbit2rIy3MG8JUP3QaCwU5Y9iry3OF1NOXAN0pEWqc-GgJWHNba0IvoSUOfpR0KDLXsG2MicKr8b4Eb4ShqPSHXJDuod1pnR1Jwo7qfLCyV44kXunmePrFcPB2raHllcqsnc4T5KWC_97-cb3vzFbDd84lDVm00]--></g></svg>